<svg xmlns="http://www.w3.org/2000/svg" xml:space="preserve" width="200mm" height="200mm" viewBox="0 0 200 200"><g transform="translate(-5 -48.5)"><circle cx="105" cy="148.5" r="100" style="fill:#202020;fill-opacity:1;stroke-width:.529231"/><path d="M135.854 170.665c2.007-5.03 45.927-14.572.624-27.1-7.627-33.362-10.775-42.693-21.12.615-40.832 12.794-21.015 22.032-1.023 26.636 9.388 63.367 18.516 12.485 21.518-.15z" style="fill:snow;fill-opacity:1;stroke:snow;stroke-width:6.0529;stroke-dasharray:none;stroke-opacity:1" transform="translate(3.3 -1.34)"/><path d="M174.282 127.833c2.472-27.317-18.521-44.392-49.078-53.441-24.75-7.33-58.132-2.617-78.233 30.871-40.999 68.302 26.662 111.874 46.12 117.765 16.242 4.917 11.803 17.022 16.958 21.436-2.434-2.578-3.412-9.433.424-10.4 3.837-.968 5.595 5.053 6.634 8.344" style="display:inline;fill:none;fill-opacity:.115448;stroke:snow;stroke-width:5;stroke-linecap:round;stroke-linejoin:round;stroke-dasharray:none;stroke-opacity:1"/><path d="M165.898 103.14c-4.997-4.61-11.096-8.133-24.133-6.074-15.05 2.377-34.107 12.4-45.09 26.93-10.11 13.371-17.047 27.116-18.275 38.314-2.216 20.207.467 32.243 22.777 50.49 15.902 13.005 16.633 24.469 16.082 28.698-.221 1.704-.152.363-.152.363" style="display:inline;fill:none;fill-opacity:.115448;stroke:snow;stroke-width:5;stroke-linecap:round;stroke-linejoin:round;stroke-dasharray:none;stroke-opacity:1"/><path d="M128.288 240.537s-3.814-22.764 15.845-33.421c19.66-10.658 29.623-48.705 30.762-74.712.637-14.561-3.022-27.038-11.35-32.903" style="display:inline;fill:none;fill-opacity:.115448;stroke:snow;stroke-width:7.5;stroke-linecap:round;stroke-linejoin:round;stroke-dasharray:none;stroke-opacity:1"/><path d="M404.112 870.191c-4.844-9.956-15.858-21.206-26.691-27.264-4.612-2.58-15.506-7.264-24.21-10.41-36.921-13.348-76.122-37.914-113.01-70.82-51.513-45.953-85.67-102.3-97.406-160.687-2.612-12.992-2.958-18.35-2.904-44.9.058-27.77.337-31.438 3.544-46.542 8.528-40.165 25.596-80.186 50.179-117.66 11.604-17.69 21.776-29.81 38.57-45.954 59.691-57.384 144.514-77.29 236.052-55.397 45.254 10.824 87.887 31.872 119.26 58.877 6.057 5.215 27.677 17.638 27.453 17.862-.225.225-20.694-8.55-24.897-9.757-11.826-3.393-46.863-2.91-64.73.892-56.55 12.035-118.599 47.492-155.238 88.71-37.374 42.044-72.644 107.132-81.293 150.02-4.517 22.396-6.113 62.197-3.257 81.215 7.229 48.139 29.298 81.42 86.506 130.459 11.299 9.685 25.26 22.592 31.026 28.683 13.131 13.872 29.32 37.738 27.102 39.955-.353.353-2.505-.008-4.782-.8-3.771-1.316-7.865-1.117-14.877.72-2.111.553-3.245-.723-6.397-7.202" style="fill:snow;fill-opacity:1;stroke:snow;stroke-width:24.2426;stroke-linecap:round;stroke-linejoin:round;stroke-dasharray:none;stroke-opacity:1" transform="scale(.26458)"/></g></svg>